<svg xmlns="http://www.w3.org/2000/svg" width="22.902" height="20.965" viewBox="0 0 22.902 20.965"><defs><style>.a{fill:#455052;}</style></defs><path class="a" d="M22.892,15.53A6.955,6.955,0,0,0,21,11.074,5.871,5.871,0,0,0,16.737,9.19,7.977,7.977,0,0,0,11.829,11.2c-.12.093-.26.2-.363.275-.082-.063-.185-.146-.275-.219A7.905,7.905,0,0,0,6.166,9.19,5.872,5.872,0,0,0,1.9,11.074,6.955,6.955,0,0,0,.011,15.53a7.8,7.8,0,0,0,1.306,4.731,44.182,44.182,0,0,0,4.966,5.846c1.1,1.127,2.121,2.085,2.945,2.769,1.365,1.133,1.91,1.278,2.233,1.278.822,0,2.564-1.359,5.177-4.04a44.064,44.064,0,0,0,4.948-5.854A7.876,7.876,0,0,0,22.892,15.53Z" transform="translate(0 -9.19)"/></svg>