<svg xmlns="http://www.w3.org/2000/svg" width="26.438" height="23.036" viewBox="0 0 26.438 23.036">
  <g id="Carousel_left_Black" data-name="Carousel left Black" transform="translate(0.597 0.5)">
    <g id="Group_1009" data-name="Group 1009" transform="translate(0 0)">
      <g id="Group_1008" data-name="Group 1008" transform="translate(0 0)">
        <path id="Path_7022" data-name="Path 7022" d="M25.341,44.408a11.018,11.018,0,0,0-22.026-.447L1.881,42.527A1.1,1.1,0,1,0,.323,44.085L3.628,47.39a1.1,1.1,0,0,0,1.558,0l3.305-3.305a1.1,1.1,0,0,0-1.558-1.558L5.522,43.939a8.814,8.814,0,0,1,17.616.469c0,.023,0,.046,0,.069s0,.047,0,.071a8.819,8.819,0,0,1-.246,1.94A1.1,1.1,0,0,0,25.033,47a11.089,11.089,0,0,0,.306-2.422c0-.027,0-.054,0-.081S25.341,44.439,25.341,44.408Z" transform="translate(0 -33.39)" fill="#d5d5d5" stroke="#fff" stroke-width="1"/>
        <path id="Path_7023" data-name="Path 7023" d="M394.344,360.3a1.1,1.1,0,0,0-1.549.162,8.813,8.813,0,0,1-1.393,1.371,1.1,1.1,0,0,0,1.363,1.732,11.046,11.046,0,0,0,1.741-1.714A1.1,1.1,0,0,0,394.344,360.3Z" transform="translate(-371.631 -343.886)" fill="#d5d5d5" stroke="#fff" stroke-width="1"/>
        <path id="Path_7024" data-name="Path 7024" d="M270.175,429.24a8.888,8.888,0,0,1-1.944.215,1.1,1.1,0,0,0,0,2.2,11.056,11.056,0,0,0,2.427-.269,1.1,1.1,0,0,0-.484-2.15Z" transform="translate(-253.909 -409.623)" fill="#d5d5d5" stroke="#fff" stroke-width="1"/>
      </g>
    </g>
  </g>
</svg>
